<mxfile host="app.diagrams.net" modified="2021-03-05T10:17:54.219Z" agent="5.0 (Macintosh; Intel Mac OS X 10_15_6) AppleWebKit/605.1.15 (KHTML, like Gecko) Version/14.0.3 Safari/605.1.15" etag="kRxEDiqR8nBwsHEx79qn" version="14.4.3" type="github">
  <diagram id="Eu5boTTG5ssNKcU4RvYt" name="Page-1">
    <mxGraphModel dx="2066" dy="1185" grid="1" gridSize="10" guides="1" tooltips="1" connect="1" arrows="1" fold="1" page="1" pageScale="1" pageWidth="827" pageHeight="1169" math="0" shadow="0">
      <root>
        <mxCell id="0" />
        <mxCell id="1" parent="0" />
        <mxCell id="G3X9aX8D-iyAonPROaYX-1" value="" style="rounded=0;whiteSpace=wrap;html=1;" parent="1" vertex="1">
          <mxGeometry x="200" y="200" width="200" height="240" as="geometry" />
        </mxCell>
        <mxCell id="G3X9aX8D-iyAonPROaYX-2" value="Výchozí obraz" style="rounded=0;whiteSpace=wrap;html=1;" parent="1" vertex="1">
          <mxGeometry x="200" y="440" width="200" height="80" as="geometry" />
        </mxCell>
        <mxCell id="G3X9aX8D-iyAonPROaYX-3" value="&lt;font style=&quot;font-size: 23px&quot;&gt;...&lt;/font&gt;" style="rounded=0;whiteSpace=wrap;html=1;rotation=-90;" parent="1" vertex="1">
          <mxGeometry x="260" y="220" width="80" height="200" as="geometry" />
        </mxCell>
        <mxCell id="G3X9aX8D-iyAonPROaYX-4" value="Spuštění aplikace" style="rounded=0;whiteSpace=wrap;html=1;" parent="1" vertex="1">
          <mxGeometry x="200" y="200" width="200" height="80" as="geometry" />
        </mxCell>
        <mxCell id="G3X9aX8D-iyAonPROaYX-5" value="Zkopírování aplikace" style="rounded=0;whiteSpace=wrap;html=1;" parent="1" vertex="1">
          <mxGeometry x="200" y="360" width="200" height="80" as="geometry" />
        </mxCell>
        <mxCell id="G3X9aX8D-iyAonPROaYX-6" value="1. vrstva" style="rounded=0;whiteSpace=wrap;html=1;rotation=-90;" parent="1" vertex="1">
          <mxGeometry x="140" y="460" width="80" height="40" as="geometry" />
        </mxCell>
        <mxCell id="G3X9aX8D-iyAonPROaYX-7" value="2. vrstva" style="rounded=0;whiteSpace=wrap;html=1;rotation=-90;" parent="1" vertex="1">
          <mxGeometry x="140" y="380" width="80" height="40" as="geometry" />
        </mxCell>
        <mxCell id="G3X9aX8D-iyAonPROaYX-8" value="n-tá vrstva" style="rounded=0;whiteSpace=wrap;html=1;rotation=-90;" parent="1" vertex="1">
          <mxGeometry x="140" y="220" width="80" height="40" as="geometry" />
        </mxCell>
        <mxCell id="G3X9aX8D-iyAonPROaYX-9" value="&lt;font style=&quot;font-size: 23px&quot;&gt;...&lt;/font&gt;" style="rounded=0;whiteSpace=wrap;html=1;rotation=-90;" parent="1" vertex="1">
          <mxGeometry x="140" y="300" width="80" height="40" as="geometry" />
        </mxCell>
        <mxCell id="G3X9aX8D-iyAonPROaYX-10" value="200 MB" style="rounded=0;whiteSpace=wrap;html=1;rotation=-90;" parent="1" vertex="1">
          <mxGeometry x="380" y="460" width="80" height="40" as="geometry" />
        </mxCell>
        <mxCell id="G3X9aX8D-iyAonPROaYX-11" value="30 MB" style="rounded=0;whiteSpace=wrap;html=1;rotation=-90;" parent="1" vertex="1">
          <mxGeometry x="380" y="380" width="80" height="40" as="geometry" />
        </mxCell>
        <mxCell id="G3X9aX8D-iyAonPROaYX-12" value="0 MB" style="rounded=0;whiteSpace=wrap;html=1;rotation=-90;" parent="1" vertex="1">
          <mxGeometry x="380" y="220" width="80" height="40" as="geometry" />
        </mxCell>
        <mxCell id="G3X9aX8D-iyAonPROaYX-13" value="&lt;font style=&quot;font-size: 23px&quot;&gt;...&lt;/font&gt;" style="rounded=0;whiteSpace=wrap;html=1;rotation=-90;" parent="1" vertex="1">
          <mxGeometry x="380" y="300" width="80" height="40" as="geometry" />
        </mxCell>
      </root>
    </mxGraphModel>
  </diagram>
</mxfile>
